<svg width="122" height="102" viewBox="0 0 122 102" fill="none" xmlns="http://www.w3.org/2000/svg">
<g id="&#240;&#159;&#166;&#134; icon &#34;brain&#34;">
<path id="Vector" fill-rule="evenodd" clip-rule="evenodd" d="M121.695 59.3706C121.284 62.0983 120.245 64.6936 118.659 66.9517C117.073 69.2098 114.985 71.0683 112.558 72.3804C111.886 72.7533 111.181 73.066 110.454 73.3153C111.378 85.5573 91.9246 90.0089 81.441 87.0931L85.3362 100.715L75.32 101.071L57.7918 75.9751C51.8823 77.6445 44.9043 78.4458 40.3971 71.2119C39.9876 70.5475 39.616 69.8597 39.2842 69.153C38.1376 69.3867 36.9709 69.5058 35.8008 69.5092C32.4621 69.5092 26.8975 68.5075 24.0707 66.5488C21.8297 65.0631 20.0518 62.9764 18.9403 60.528C12.9194 61.3516 7.8112 59.9382 4.47248 56.4436C0.243442 52.0922 -0.958495 44.9028 1.24506 37.1904C4.14974 26.896 12.9862 15.2995 30.5479 10.9481C32.0713 9.05413 33.8946 7.42262 35.9454 6.11807C46.9743 -0.948879 64.881 -1.56098 78.4696 5.14984C83.7376 4.16848 89.1757 4.68909 94.1615 6.65226C103.933 10.3137 111.033 17.9705 112.369 25.7497C115.014 27.1205 117.18 29.2629 118.579 31.893C121.506 37.3907 121.917 42.8996 119.948 47.3512C121.803 51.0672 122.416 55.2807 121.695 59.3706ZM114.483 53.5835C112.927 54.4048 111.196 54.8344 109.436 54.8344C107.677 54.8344 105.945 54.4048 104.389 53.5835L105.202 48.1859C108.629 48.5198 111.423 47.4514 112.881 45.259C114.517 42.8217 114.261 39.2047 112.191 35.3207C109.876 30.9692 104.879 30.2792 102.108 30.2458H101.93C94.9851 30.2458 87.907 34.1967 85.0468 39.3494L80.8846 37.3573C81.7029 34.7029 83.0932 32.2602 84.9578 30.2013C83.3525 28.8385 82.1393 27.0726 81.4429 25.0853C80.7466 23.098 80.5923 20.961 80.9958 18.8942L85.1025 18.5158C85.2904 20.1874 85.9817 21.7624 87.0847 23.0323C88.1877 24.3023 89.6509 25.2072 91.2791 25.6273C94.7046 24.0983 98.424 23.3386 102.174 23.4015C102.709 23.4015 103.221 23.4571 103.744 23.4905C101.083 18.7731 96.8659 15.1265 91.8133 13.1739C79.4823 8.38839 71.1689 15.8115 69.2658 18.3712C64.6807 24.5144 67.6187 30.3238 69.8557 34.0965L66.1831 37.4352C62.9846 34.6685 60.8384 30.8832 60.1066 26.7179C55.399 28.1313 49.0777 27.8308 45.5387 21.7878L48.8774 19.4952C52.6279 22.2997 58.5819 22.0549 61.4087 18.5937C62.0823 17.0634 62.934 15.6177 63.9461 14.2868C65.5532 12.1645 67.4923 10.3155 69.6887 8.8113C60.4628 6.29613 47.4306 6.70791 39.5513 11.7605C37.4221 12.9969 35.6694 14.7895 34.4813 16.9461C33.2933 19.1028 32.7145 21.542 32.8071 24.0025C32.8071 27.9755 35.9232 34.2523 40.1188 35.2317L37.6816 39.9615C35.0046 39.3415 32.5743 37.9346 30.7037 35.9217L27.0867 40.5291L23.4698 38.7707L27.0088 29.5113C26.4306 27.7129 26.1341 25.8359 26.1296 23.9468C26.1385 22.4512 26.2951 20.9601 26.597 19.4952C15.468 24.0915 9.97024 31.7371 7.95588 38.7262C6.40894 44.1015 7.00991 48.9538 9.54733 51.558C11.5617 53.628 14.6444 54.1177 17.5491 53.9285L25.3395 47.8631L27.8991 50.0222L25.5843 57.6122C26.7974 61.474 30.7704 63.4661 38.0154 62.0638C38.3911 58.9911 39.6038 56.0808 41.5211 53.6503C42.927 51.627 44.787 49.9621 46.9521 48.7869L50.7582 38.537L54.5644 38.3701L54.1526 46.7725C60.5518 46.1159 67.7078 47.418 74.3741 46.4164L75.5983 50.868C65.827 55.3864 55.8219 48.019 46.7518 57.7346C43.4909 61.2291 44.7374 64.2674 46.7518 67.3279C49.6564 71.7016 55.1097 69.0751 60.6853 67.3279C69.1323 64.7459 75.2644 62.8762 86.8275 63.8222C84.0675 58.5804 84.3346 52.248 88.0294 45.2812L93.4715 47.4291C89.6543 56.2322 93.2267 61.3293 95.6973 63.5774C99.5146 67.0496 105.257 68.0958 109.052 66.0035C110.506 65.2011 111.755 64.0748 112.705 62.7126C113.654 61.3504 114.277 59.7879 114.528 58.1464C114.778 56.634 114.759 55.0892 114.472 53.5835H114.483Z" fill="#FFCF96"/>
</g>
</svg>
