<svg width="133" height="108" viewBox="0 0 133 108" fill="none" xmlns="http://www.w3.org/2000/svg">
<g id="Group 1">
<g id="&#240;&#159;&#166;&#134; icon &#34;heart outline&#34;">
<path id="Vector" d="M33.1388 98.8392C32.7769 98.8412 32.4181 98.7719 32.0831 98.635C31.748 98.4982 31.4433 98.2965 31.1863 98.0416L9.81876 76.6466C7.1385 73.9383 5.63507 70.2819 5.63507 66.4716C5.63507 62.6612 7.1385 59.0048 9.81876 56.2965C12.52 53.6029 16.1791 52.0903 19.9938 52.0903C23.8085 52.0903 27.4676 53.6029 30.1688 56.2965L33.1388 59.2666L36.1088 56.2965C38.8101 53.6029 42.4691 52.0903 46.2839 52.0903C50.0986 52.0903 53.7577 53.6029 56.4589 56.2965C59.1391 59.0048 60.6426 62.6612 60.6426 66.4716C60.6426 70.2819 59.1391 73.9383 56.4589 76.6466L35.0913 98.0416C34.8344 98.2965 34.5296 98.4982 34.1946 98.635C33.8595 98.7719 33.5007 98.8412 33.1388 98.8392ZM19.9938 57.589C18.8296 57.5838 17.676 57.8095 16.5997 58.2533C15.5235 58.697 14.5459 59.3499 13.7238 60.1741C12.0629 61.8436 11.1306 64.1028 11.1306 66.4578C11.1306 68.8128 12.0629 71.072 13.7238 72.7416L33.1388 92.1841L52.5539 72.7416C54.2147 71.072 55.147 68.8128 55.147 66.4578C55.147 64.1028 54.2147 61.8436 52.5539 60.1741C50.8589 58.5727 48.6156 57.6806 46.2839 57.6806C43.9521 57.6806 41.7088 58.5727 40.0138 60.1741L35.0913 65.1241C34.8357 65.3818 34.5315 65.5864 34.1964 65.726C33.8613 65.8656 33.5019 65.9375 33.1388 65.9375C32.7758 65.9375 32.4163 65.8656 32.0812 65.726C31.7461 65.5864 31.442 65.3818 31.1863 65.1241L26.2638 60.1741C25.4416 59.3499 24.4641 58.697 23.3878 58.2533C22.3115 57.8095 21.1579 57.5838 19.9938 57.589Z" fill="#FFCF96"/>
</g>
<g id="&#240;&#159;&#166;&#134; icon &#34;star&#34;">
<path id="Vector_2" d="M114.303 98.8433C113.863 98.8451 113.429 98.7413 113.038 98.5408L99.0128 91.1983L84.9878 98.5408C84.5324 98.7803 84.0189 98.8872 83.5058 98.8493C82.9926 98.8115 82.5004 98.6305 82.085 98.3268C81.6696 98.0232 81.3477 97.6091 81.156 97.1316C80.9642 96.6541 80.9103 96.1324 81.0003 95.6258L83.7503 80.1432L72.4203 69.1432C72.0668 68.7905 71.816 68.3481 71.6949 67.8636C71.5738 67.3791 71.5869 66.8708 71.7328 66.3932C71.8922 65.9045 72.1854 65.4702 72.5791 65.1396C72.9728 64.8091 73.4513 64.5955 73.9603 64.5232L89.6353 62.2407L96.5378 48.1332C96.763 47.6682 97.1146 47.2761 97.5523 47.0017C97.9901 46.7274 98.4962 46.5818 99.0128 46.5818C99.5295 46.5818 100.036 46.7274 100.473 47.0017C100.911 47.2761 101.263 47.6682 101.488 48.1332L108.473 62.2132L124.148 64.4957C124.657 64.568 125.135 64.7816 125.529 65.1121C125.923 65.4427 126.216 65.877 126.375 66.3657C126.521 66.8433 126.534 67.3516 126.413 67.8361C126.292 68.3206 126.041 68.763 125.688 69.1157L114.358 80.1157L117.108 95.5983C117.206 96.1138 117.155 96.6467 116.96 97.134C116.765 97.6213 116.435 98.0426 116.008 98.3483C115.51 98.6972 114.91 98.8713 114.303 98.8433Z" fill="#FFCF96"/>
</g>
<path id="Twitter New X Logo Icons-19 2 (Traced)" fill-rule="evenodd" clip-rule="evenodd" d="M42.3486 0.978613L42.6468 1.46922L45.2362 5.19786L47.8259 8.9265L51.0168 13.53L54.208 18.1339L56.9407 22.0419L59.6734 25.9499L54.9553 31.325L50.2373 36.7001L48.8475 38.3698L47.4578 40.039L45.2604 42.5372L43.0634 45.0354L42.5317 45.7223L42 46.4091H43.7412H45.4819L53.1685 37.5613L60.8551 28.713L61.3038 28.8527L61.7524 28.9925L67.7582 37.6025L73.7639 46.2129L80.382 46.3204L87 46.4283L84.6501 42.9843L82.3002 39.5406L75.5115 29.781L68.7227 20.021L69.1007 19.38L69.4787 18.7387L77.3737 9.71147L85.2688 0.684247L83.636 0.556296L82.0032 0.428345L79.9368 2.71498L77.8705 5.00162L72.591 11.1547L67.3115 17.3077L67.0947 17.3363L66.8783 17.365L61.0179 8.9265L55.1578 0.488003H48.6041H42.0504L42.3486 0.978613ZM62.9194 16.6781L72.4028 30.1209L75.1914 34.0457L77.9797 37.9706L79.892 40.5697L81.8047 43.1691V43.4152V43.6617H78.6658H75.5265L72.7681 39.8349L70.0092 36.0082L58.7911 20.1352L47.5729 4.26217L47.3736 3.74879L47.1743 3.23542H50.3052H53.4361L62.9194 16.6781Z" fill="#FFCF96"/>
</g>
</svg>
