<svg width="111" height="111" viewBox="0 0 111 111" fill="none" xmlns="http://www.w3.org/2000/svg">
<g id="&#240;&#159;&#166;&#134; icon &#34;calendar outline&#34;">
<g id="Group">
<path id="Vector" d="M82.5663 19.1065H77.9846V14.5248C77.9846 13.3096 77.5018 12.1442 76.6426 11.285C75.7833 10.4257 74.618 9.94299 73.4028 9.94299C72.1876 9.94299 71.0222 10.4257 70.163 11.285C69.3037 12.1442 68.821 13.3096 68.821 14.5248V19.1065H41.3304V14.5248C41.3304 13.3096 40.8477 12.1442 39.9884 11.285C39.1292 10.4257 37.9638 9.94299 36.7486 9.94299C35.5335 9.94299 34.3681 10.4257 33.5088 11.285C32.6496 12.1442 32.1669 13.3096 32.1669 14.5248V19.1065H27.5851C23.9396 19.1065 20.4434 20.5547 17.8657 23.1324C15.2879 25.7102 13.8398 29.2064 13.8398 32.8518V87.8331C13.8398 91.4786 15.2879 94.9747 17.8657 97.5525C20.4434 100.13 23.9396 101.578 27.5851 101.578H82.5663C86.2118 101.578 89.708 100.13 92.2857 97.5525C94.8635 94.9747 96.3116 91.4786 96.3116 87.8331V32.8518C96.3116 29.2064 94.8635 25.7102 92.2857 23.1324C89.708 20.5547 86.2118 19.1065 82.5663 19.1065ZM27.5851 28.2701H32.1669V32.8518C32.1669 34.067 32.6496 35.2324 33.5088 36.0916C34.3681 36.9509 35.5335 37.4336 36.7486 37.4336C37.9638 37.4336 39.1292 36.9509 39.9884 36.0916C40.8477 35.2324 41.3304 34.067 41.3304 32.8518V28.2701H68.821V32.8518C68.821 34.067 69.3037 35.2324 70.163 36.0916C71.0222 36.9509 72.1876 37.4336 73.4028 37.4336C74.618 37.4336 75.7833 36.9509 76.6426 36.0916C77.5018 35.2324 77.9846 34.067 77.9846 32.8518V28.2701H82.5663C83.7815 28.2701 84.9469 28.7528 85.8061 29.612C86.6654 30.4713 87.1481 31.6367 87.1481 32.8518V51.1789H23.0033V32.8518C23.0033 31.6367 23.486 30.4713 24.3453 29.612C25.2045 28.7528 26.3699 28.2701 27.5851 28.2701ZM82.5663 92.4149H27.5851C26.3699 92.4149 25.2045 91.9321 24.3453 91.0729C23.486 90.2136 23.0033 89.0482 23.0033 87.8331V60.3425H87.1481V87.8331C87.1481 89.0482 86.6654 90.2136 85.8061 91.0729C84.9469 91.9321 83.7815 92.4149 82.5663 92.4149Z" fill="#FFCF96"/>
<path id="Vector_2" d="M36.7486 78.6696C39.2791 78.6696 41.3304 76.6183 41.3304 74.0878C41.3304 71.5574 39.2791 69.506 36.7486 69.506C34.2182 69.506 32.1669 71.5574 32.1669 74.0878C32.1669 76.6183 34.2182 78.6696 36.7486 78.6696Z" fill="#FFCF96"/>
<path id="Vector_3" d="M73.4028 69.506H55.0757C53.8605 69.506 52.6951 69.9888 51.8359 70.848C50.9766 71.7073 50.4939 72.8727 50.4939 74.0878C50.4939 75.303 50.9766 76.4684 51.8359 77.3276C52.6951 78.1869 53.8605 78.6696 55.0757 78.6696H73.4028C74.6179 78.6696 75.7833 78.1869 76.6426 77.3276C77.5018 76.4684 77.9845 75.303 77.9845 74.0878C77.9845 72.8727 77.5018 71.7073 76.6426 70.848C75.7833 69.9888 74.6179 69.506 73.4028 69.506Z" fill="#FFCF96"/>
</g>
</g>
</svg>
