<svg width="216" height="18" viewBox="0 0 216 18" fill="none" xmlns="http://www.w3.org/2000/svg">
<g id="Logo">
<path id="Screenshot_20231220_110031_Chrome 1 (Traced)" fill-rule="evenodd" clip-rule="evenodd" d="M102.49 1.33901C101.603 2.384 102.242 3.93553 103.56 3.93553C104.747 3.93553 105.36 2.23223 104.46 1.43543C103.925 0.96248 102.854 0.910037 102.49 1.33901ZM123.327 1.32716C118.316 3.03965 118.978 8.14546 124.48 10.2195C128.399 11.6968 129.119 12.2527 128.657 13.4415C128.285 14.3982 127.45 14.8108 125.885 14.8108C123.759 14.8108 123.036 15.8108 124.314 16.9841C125.961 18.4968 130.251 17.4148 131.342 15.212C132.825 12.2167 131.368 10.0868 126.45 8.05749C123.527 6.85179 122.849 6.32083 123.08 5.41988C123.561 3.54523 126.406 3.2226 128.524 4.80241C129.458 5.49891 130.149 5.54362 130.704 4.94354C132.683 2.80571 127.063 0.0504103 123.327 1.32716ZM143.174 1.33756C142.181 2.10076 142.829 3.93553 144.091 3.93553C144.784 3.93553 145.748 2.7859 145.564 2.1793C145.357 1.49561 144.764 1.03547 144.091 1.03547C143.803 1.03547 143.39 1.17153 143.174 1.33756ZM161.745 1.58769C156.009 3.95317 154.453 10.501 158.577 14.9132C161.128 17.6424 166.083 18.6635 166.62 16.5706C166.839 15.7185 166.107 15.1117 164.5 14.8139C159.781 13.9388 157.845 9.75572 160.447 6.05814C161.805 4.12814 164.488 3.48385 167.147 4.44957C169.825 5.42206 170.725 5.26231 170.725 3.8147C170.725 1.60847 165.086 0.209915 161.745 1.58769ZM176.511 1.47748C175.647 2.41034 176.342 3.93553 177.63 3.93553C178.222 3.93553 179.068 2.99301 179.068 2.33276C179.068 1.23001 177.29 0.635257 176.511 1.47748ZM7.11362 1.56062C6.59576 1.80567 5.68735 3.53194 1.5613 12.1103C-0.216959 15.8074 -0.34253 16.7379 0.884506 17.1185C1.95656 17.4513 2.5147 17.0392 3.43844 15.2332C4.33425 13.4816 4.33424 13.4816 8.69907 13.3607C14.7134 13.1942 14.5586 13.5367 11.5017 7.15992C9.48216 2.94709 8.40739 1.23702 7.81513 1.29357C7.72071 1.30251 7.40505 1.42262 7.11362 1.56062ZM19.9374 1.52775C18.9697 1.90766 18.8322 2.76366 18.9677 7.56061C19.1064 12.4697 19.2641 13.2607 20.4422 14.9541C22.7586 18.2836 28.7232 18.5606 31.4012 15.4631C34.2369 12.1833 33.7589 4.22602 30.846 6.22078C30.3952 6.52964 30.3168 6.89287 30.2053 9.18948C30.0073 13.2769 29.0005 14.6382 26.1767 14.6382C22.6997 14.6382 22.104 13.5495 22.104 7.19666C22.104 1.62466 21.7891 0.800319 19.9374 1.52775ZM30.9617 1.61427C30.0575 2.05508 30.1326 3.68999 31.0776 4.13298C31.6719 4.41114 31.8543 4.40413 32.3566 4.08223C33.9813 3.04134 32.6967 0.768659 30.9617 1.61427ZM38.1712 1.43833C35.7057 2.39221 36.9587 4.41888 40.0139 4.41888C41.879 4.41888 41.879 4.41887 41.879 10.2859C41.879 16.7719 41.9746 17.2275 43.3379 17.2275C44.8103 17.2275 44.8452 17.0455 44.8452 9.3398C44.8452 0.744492 45.1396 1.41634 41.3433 1.3465C39.8026 1.31822 38.3751 1.35955 38.1712 1.43833ZM47.6206 1.5744C45.9689 2.35282 47.1819 4.82464 48.9015 4.18542C50.2564 3.68177 49.6003 0.847445 48.2324 1.29357C48.2047 1.30251 47.9296 1.42891 47.6206 1.5744ZM57.3838 1.70055C56.0976 3.08992 56.1011 5.26594 57.3899 5.50012C57.8999 5.59268 58.7327 5.89598 59.2411 6.17414C59.7493 6.4523 60.2024 6.63332 60.2477 6.57652C61.4707 5.04118 61.686 4.12742 61.0471 3.18345C59.9192 1.51736 58.1982 0.820619 57.3838 1.70055ZM88.8556 1.58455C87.8883 2.06306 81.4991 15.312 81.816 16.1815C82.4705 17.9774 83.9178 17.5211 85.2106 15.1112C86.1496 13.3607 86.1496 13.3607 90.3014 13.3607C96.3159 13.3607 96.2527 13.513 93.033 6.79403C90.4544 1.41296 90.0987 0.96949 88.8556 1.58455ZM191.199 1.61838C190.61 1.93763 184.044 14.8956 184.021 15.784C183.959 18.2116 186.396 17.5847 187.729 14.8303C188.44 13.3607 188.44 13.3607 192.606 13.3607C198.9 13.3607 198.791 13.6387 195.287 6.52505C192.741 1.35737 192.412 0.961756 191.199 1.61838ZM205.08 1.52775C204.145 1.89485 204.034 2.72137 204.034 9.25232C204.034 15.3478 204.167 16.6112 204.852 17.0375C205.428 17.3955 209.326 17.2519 209.911 16.8512C211.212 15.9607 210.207 14.3274 208.359 14.3274C207.247 14.3274 207.247 14.3274 207.247 8.39559C207.247 1.49778 207.017 0.76721 205.08 1.52775ZM138.158 3.47829C133.226 7.92288 135.859 16.2891 142.569 17.4979C150.589 18.9426 155.825 9.52444 150.244 3.69168C147.85 1.18917 145.677 3.01911 148.002 5.57939C151.644 9.58873 148.369 15.4966 143.037 14.5362C138.616 13.7399 137.139 8.38665 140.484 5.27995C141.331 4.49307 141.442 3.83089 140.863 3.02274C140.277 2.20371 139.41 2.34944 138.158 3.47829ZM63.5674 3.31419C62.0415 3.8466 61.8786 4.06555 62.2907 5.02958C62.4842 5.48272 62.6427 6.34621 62.6427 6.9487C62.6427 8.56669 65.2712 8.67182 66.0983 7.08694C67.5535 4.29804 66.2627 2.37385 63.5674 3.31419ZM103.012 5.64512C102.057 5.99289 101.945 6.60238 101.945 11.4786C101.945 16.648 102.091 17.2309 103.381 17.2239C104.975 17.2149 105.16 16.6066 105.155 11.3829C105.151 6.03155 104.768 5.0059 103.012 5.64512ZM177.09 5.55328C176.181 5.87108 176.101 6.34307 176.101 11.4564C176.101 16.9665 176.169 17.2275 177.588 17.2275C178.934 17.2275 179.068 16.6975 179.068 11.3626C179.068 5.88727 178.756 4.97134 177.09 5.55328ZM53.913 5.97742C51.939 6.6657 51.5178 7.72543 52.6444 9.16942C53.873 10.7444 54.5144 10.8471 55.7585 9.66848C56.351 9.10731 57.0342 8.53938 57.277 8.40647C57.6898 8.18026 57.6737 8.08311 57.0288 6.89795C56.2586 5.48272 55.7568 5.33457 53.913 5.97742ZM7.96567 6.53351C7.93897 6.63308 8.38391 7.60967 8.95442 8.70324C9.52492 9.7968 9.99186 10.7485 9.99186 10.8179C9.99186 10.8872 9.04637 10.944 7.89077 10.944C5.42632 10.944 5.47798 11.0612 6.76236 8.38157C7.57116 6.69446 8.1691 5.77611 7.96567 6.53351ZM90.6385 8.58989C91.1495 9.68539 91.5665 10.6632 91.5655 10.7628C91.5645 10.8623 90.618 10.944 89.4624 10.944C88.3068 10.944 87.3613 10.9005 87.3613 10.8474C87.3613 10.5267 89.3514 6.59441 89.5129 6.5961C89.6211 6.59731 90.1276 7.49464 90.6385 8.58989ZM192.989 8.46688C194.231 11.024 194.27 10.944 191.798 10.944C190.642 10.944 189.697 10.8913 189.697 10.8268C189.697 10.567 191.795 6.59392 191.932 6.59392C192.013 6.59392 192.489 7.43664 192.989 8.46688ZM64.7695 9.4198C64.2397 9.99691 63.5659 10.5281 63.272 10.6004C62.1028 10.8872 63.7461 13.3332 65.1145 13.3424C68.1814 13.3636 69.4171 11.5446 67.6205 9.65373C66.3072 8.27161 65.8571 8.23463 64.7695 9.4198ZM59.9236 9.63488C59.9236 9.84538 60.0556 9.97467 60.2173 9.92199C60.6755 9.77264 60.7514 9.25232 60.3149 9.25232C60.0996 9.25232 59.9236 9.42463 59.9236 9.63488ZM54.4551 11.969C52.885 14.9778 54.5619 17.0073 57.4517 15.5957C58.3876 15.1387 58.4259 14.9567 57.9619 13.1725C57.8141 12.6036 57.7548 11.8967 57.8302 11.6016C58.13 10.4278 55.0864 10.7594 54.4551 11.969ZM59.5654 13.7172C58.1495 16.2833 61.71 19.2269 63.4591 16.9365C64.4795 15.6003 64.1735 13.7752 62.8926 13.556C62.2823 13.4516 61.4804 13.1476 61.1103 12.8801C60.26 12.2655 60.4115 12.1833 59.5654 13.7172ZM120.152 13.0777C119.612 13.6614 119.632 14.6377 120.195 15.1358C121.614 16.3913 123.567 14.441 122.215 13.1191C121.598 12.5159 120.689 12.4977 120.152 13.0777ZM168.991 13.3856C168.277 13.6454 167.852 14.6737 168.197 15.3045C168.617 16.0718 169.344 16.3275 170.087 15.9696C171.799 15.1457 170.777 12.7358 168.991 13.3856ZM13.3042 14.5123C12.287 15.1764 12.4444 16.8505 13.5494 17.1216C15.1756 17.5206 16.1194 15.9759 14.9986 14.7504C14.5999 14.3146 13.783 14.1998 13.3042 14.5123ZM94.7769 14.8108C94.16 15.414 94.1414 16.3026 94.7347 16.8275C95.6807 17.6647 97.2488 17.0354 97.2488 15.8188C97.2488 15.1612 96.4198 14.3274 95.7657 14.3274C95.4938 14.3274 95.0489 14.5449 94.7769 14.8108ZM197.112 14.8108C196.187 15.7154 196.872 17.2275 198.207 17.2275C199.531 17.2275 200.116 15.444 199.035 14.7037C198.295 14.1974 197.706 14.23 197.112 14.8108ZM212.74 14.7037C212.088 15.1503 212.003 16.284 212.579 16.8478C213.522 17.7691 215.349 16.8246 215.041 15.5752C214.75 14.3932 213.748 14.0135 212.74 14.7037Z" fill="#333333"/>
<path id="Screenshot_20231220_110031_Chrome 1 (Traced)_2" fill-rule="evenodd" clip-rule="evenodd" d="M102.49 1.30592C101.603 2.35091 102.242 3.90245 103.56 3.90245C104.747 3.90245 105.36 2.19914 104.46 1.40235C103.925 0.929395 102.854 0.876952 102.49 1.30592ZM143.174 1.30447C142.181 2.06767 142.829 3.90245 144.091 3.90245C144.784 3.90245 145.748 2.75281 145.564 2.14621C145.357 1.46252 144.764 1.00238 144.091 1.00238C143.803 1.00238 143.39 1.13844 143.174 1.30447ZM176.511 1.4444C175.647 2.37725 176.342 3.90245 177.63 3.90245C178.222 3.90245 179.068 2.95992 179.068 2.29968C179.068 1.19693 177.29 0.602172 176.511 1.4444ZM30.9617 1.58118C30.0575 2.02199 30.1326 3.65691 31.0776 4.09989C31.6719 4.37806 31.8543 4.37105 32.3566 4.04914C33.9813 3.00826 32.6967 0.735574 30.9617 1.58118ZM47.6206 1.54131C45.9689 2.31974 47.1819 4.79156 48.9015 4.15233C50.2564 3.64869 49.6003 0.81436 48.2324 1.26049C48.2047 1.26943 47.9296 1.39582 47.6206 1.54131ZM120.152 13.0447C119.612 13.6283 119.632 14.6047 120.195 15.1027C121.614 16.3582 123.567 14.4079 122.215 13.086C121.598 12.4828 120.689 12.4646 120.152 13.0447ZM168.991 13.3525C168.277 13.6123 167.852 14.6407 168.197 15.2714C168.617 16.0387 169.344 16.2944 170.087 15.9365C171.799 15.1126 170.777 12.7027 168.991 13.3525ZM13.3042 14.4792C12.287 15.1433 12.4444 16.8174 13.5494 17.0886C15.1756 17.4876 16.1194 15.9428 14.9986 14.7173C14.5999 14.2815 13.783 14.1667 13.3042 14.4792ZM94.777 14.7777C94.16 15.3809 94.1414 16.2695 94.7347 16.7944C95.6807 17.6316 97.2488 17.0023 97.2488 15.7857C97.2488 15.1281 96.4198 14.2943 95.7657 14.2943C95.4938 14.2943 95.0489 14.5119 94.777 14.7777ZM197.112 14.7777C196.187 15.6823 196.872 17.1944 198.207 17.1944C199.531 17.1944 200.116 15.4109 199.035 14.6706C198.295 14.1643 197.706 14.197 197.112 14.7777ZM212.74 14.6706C212.088 15.1172 212.003 16.2509 212.579 16.8147C213.522 17.736 215.349 16.7915 215.041 15.5421C214.75 14.3601 213.748 13.9804 212.74 14.6706Z" fill="#333333"/>
<path id="Screenshot_20231220_110031_Chrome 1 (Traced)_3" fill-rule="evenodd" clip-rule="evenodd" d="M57.3838 1.62675C56.0977 3.01612 56.1012 5.19214 57.39 5.42632C57.8999 5.51888 58.7327 5.82218 59.2412 6.10034C59.7494 6.37851 60.2025 6.55952 60.2477 6.50273C61.4708 4.96739 61.6861 4.05362 61.0471 3.10965C59.9192 1.44356 58.1983 0.746823 57.3838 1.62675ZM63.5674 3.2404C62.0416 3.7728 61.8787 3.99176 62.2907 4.95579C62.4843 5.40892 62.6427 6.27242 62.6427 6.8749C62.6427 8.4929 65.2713 8.59803 66.0984 7.01314C67.5536 4.22424 66.2628 2.30005 63.5674 3.2404ZM53.9131 5.90362C51.939 6.5919 51.5178 7.65164 52.6445 9.09563C53.873 10.6706 54.5145 10.7733 55.7586 9.59468C56.3511 9.03352 57.0343 8.46559 57.277 8.33267C57.6898 8.10646 57.6738 8.00931 57.0288 6.82415C56.2586 5.40892 55.7568 5.26077 53.9131 5.90362ZM64.7695 9.346C64.2398 9.92311 63.5659 10.4543 63.272 10.5266C62.1028 10.8134 63.7462 13.2594 65.1146 13.2686C68.1814 13.2898 69.4171 11.4708 67.6206 9.57994C66.3073 8.19782 65.8571 8.16084 64.7695 9.346ZM59.9237 9.56109C59.9237 9.77158 60.0556 9.90088 60.2173 9.84819C60.6756 9.69884 60.7515 9.17852 60.315 9.17852C60.0997 9.17852 59.9237 9.35083 59.9237 9.56109ZM54.4551 11.8952C52.885 14.904 54.5619 16.9335 57.4518 15.5219C58.3876 15.0649 58.4259 14.8829 57.962 13.0987C57.8142 12.5298 57.7548 11.8229 57.8302 11.5278C58.1301 10.354 55.0865 10.6856 54.4551 11.8952ZM59.5655 13.6434C58.1496 16.2095 61.7101 19.1531 63.4592 16.8627C64.4796 15.5265 64.1735 13.7014 62.8926 13.4822C62.2823 13.3778 61.4804 13.0738 61.1104 12.8063C60.2601 12.1917 60.4116 12.1095 59.5655 13.6434Z" fill="#333333"/>
</g>
</svg>
